<svg xmlns="http://www.w3.org/2000/svg" viewBox="0 0 256 256" role="img" aria-label="AquaBrain fish icon">
  <defs>
    <linearGradient id="bg" x1="0%" y1="0%" x2="100%" y2="100%">
      <stop offset="0%" stop-color="#042f4b"/>
      <stop offset="100%" stop-color="#0f766e"/>
    </linearGradient>
    <linearGradient id="fish" x1="0%" y1="0%" x2="100%" y2="100%">
      <stop offset="0%" stop-color="#f59e0b"/>
      <stop offset="100%" stop-color="#fb7185"/>
    </linearGradient>
  </defs>
  <rect width="256" height="256" rx="56" fill="url(#bg)"/>
  <path d="M184 72c-28 2-48 16-62 29-16-7-41-9-66 9 20 1 34 7 42 15-8 8-22 14-42 15 25 18 50 16 66 9 14 13 34 27 62 29-10-13-14-25-15-38 11-4 18-15 18-30s-7-26-18-30c1-13 5-25 15-38Z" fill="url(#fish)"/>
  <circle cx="150" cy="107" r="7" fill="#0f172a"/>
  <path d="M70 185c18-14 38-15 58-9" fill="none" stroke="rgba(255,255,255,.35)" stroke-linecap="round" stroke-width="10"/>
  <path d="M52 64c14 8 26 18 36 30" fill="none" stroke="rgba(255,255,255,.22)" stroke-linecap="round" stroke-width="8"/>
</svg>
